Coordinates
version=1
nRows=28
nColumns=33
inDegrees=yes

Units are S.I. units (second, meters, Newtons, ...)
Angles are in degrees.

endheader
time	ground_thorax_rot_x	ground_thorax_rot_y	ground_thorax_rot_z	ground_thorax_tx	ground_thorax_ty	ground_thorax_tz	clav_prot_r	clav_elev_r	scapula_abduction_r	scapula_elevation_r	scapula_upward_rot_r	scapula_winging_r	shoulder_elv_r	plane_of_elev_r	axial_rot_r	elbow_flexion_r	pro_sup_r	wrist_flex_r	wrist_dev_r	clav_prot_l	clav_elev_l	scapula_abduction_l	scapula_elevation_l	scapula_upward_rot_l	scapula_winging_l	shoulder_elv_l	plane_of_elev_l	axial_rot_l	elbow_flexion_l	pro_sup_l	wrist_flex_l	wrist_dev_l	
6.5000	36.872563	17.414954	20.147718	-284.106969	829.170449	9.976661	11.656748	37.116944	35.268825	45.000000	-42.177634	2069.286319	-1191.692526	147.205618	-122.663808	1458.914813	90.761719	12.812589	2.252941	8.776065	-45.000000	-35.822529	45.000000	-45.000000	-2415.651052	1517.630640	19.036608	-63.804309	1457.238285	89.455458	-1.827789	-14.110503	
6.5100	36.830418	17.503184	20.255401	-284.113887	828.924812	10.021986	11.719165	37.075407	35.279591	45.000000	-42.262859	2069.286391	-1191.715336	147.213740	-122.584347	1458.885356	90.570958	12.828039	2.276880	8.783044	-45.000000	-35.784745	45.000000	-45.000000	-2415.650647	1517.639707	19.038438	-63.816845	1457.157593	88.871143	-1.752253	-14.067883	
6.5200	36.779275	17.606582	20.386495	-284.103223	828.685431	10.066440	11.821550	36.954382	35.281282	45.000000	-42.367215	2069.305066	-1191.729408	147.221724	-122.464868	1458.834253	90.395726	12.923889	2.321021	8.796229	-45.000000	-35.703928	45.000000	-45.000000	-2415.680396	1517.686938	19.016421	-63.795426	1457.077065	88.295805	-1.601444	-13.966662	
6.5300	36.739201	17.679094	20.480115	-284.053364	828.458401	10.108769	11.868144	36.896370	35.284463	45.000000	-42.442257	2069.321453	-1191.734949	147.226055	-122.398066	1458.814980	90.233678	12.962583	2.340673	8.800396	-45.000000	-35.687965	45.000000	-45.000000	-2415.693118	1517.694490	19.010553	-63.725188	1457.022308	87.721675	-1.545313	-13.936114	
6.5400	36.705970	17.731866	20.551878	-283.963117	828.243284	10.149041	11.888776	36.883258	35.291572	45.000000	-42.491968	2069.328244	-1191.745647	147.227499	-122.372635	1458.807674	90.089592	12.956094	2.347652	8.807324	-45.000000	-35.694446	45.000000	-45.000000	-2415.700112	1517.679030	19.026963	-63.627374	1456.968824	87.152859	-1.527470	-13.944841	
6.5500	36.667053	17.782970	20.629555	-283.828657	828.040601	10.186736	11.899455	36.859144	35.293084	45.000000	-42.530246	2069.340151	-1191.747952	147.230395	-122.355352	1458.813522	89.968141	12.964407	2.349310	8.807609	-45.000000	-35.713592	45.000000	-45.000000	-2415.714363	1517.667130	19.040638	-63.476672	1456.919010	86.591808	-1.525887	-13.957387	
6.5600	36.633537	17.819885	20.694429	-283.651455	827.848574	10.221340	11.894602	36.883253	35.302064	45.000000	-42.540986	2069.335188	-1191.765582	147.231298	-122.378351	1458.821354	89.869686	12.919541	2.341754	8.817114	-45.000000	-35.732712	45.000000	-45.000000	-2415.722836	1517.637466	19.087480	-63.319366	1456.854242	86.042337	-1.542435	-13.998145	
6.5700	36.586733	17.873035	20.790546	-283.435365	827.665423	10.251855	11.902912	36.864726	35.303941	45.000000	-42.549767	2069.337693	-1191.775065	147.237653	-122.384459	1458.830906	89.797699	12.921338	2.338161	8.818530	-45.000000	-35.740303	45.000000	-45.000000	-2415.746559	1517.631212	19.120605	-63.124308	1456.782608	85.507987	-1.540410	-14.008630	
6.5800	36.549551	17.909277	20.874468	-283.183416	827.489359	10.276915	11.898353	36.897143	35.317736	45.000000	-42.531429	2069.321294	-1191.799566	147.240662	-122.427142	1458.835847	89.749988	12.863870	2.327498	8.834690	-45.000000	-35.735071	45.000000	-45.000000	-2415.760195	1517.606694	19.190025	-62.944027	1456.695037	84.992791	-1.548007	-14.042445	
6.5900	36.505492	17.950125	20.980586	-282.897964	827.319685	10.294819	11.902425	36.890010	35.326473	45.000000	-42.508253	2069.315202	-1191.811155	147.243368	-122.451241	1458.841469	89.729901	12.850658	2.320703	8.841738	-45.000000	-35.725669	45.000000	-45.000000	-2415.783676	1517.599402	19.238882	-62.738872	1456.615133	84.493560	-1.545713	-14.052094	
6.6000	36.467858	17.976857	21.082183	-282.580837	827.155931	10.304033	11.898165	36.929200	35.348562	45.000000	-42.471076	2069.306092	-1191.824213	147.252096	-122.495343	1458.847294	89.734436	12.799851	2.307607	8.855728	-45.000000	-35.718656	45.000000	-45.000000	-2415.797886	1517.578521	19.298496	-62.546644	1456.537690	84.014418	-1.550855	-14.075098	
6.6100	36.422885	18.008228	21.201607	-282.233395	826.998345	10.303280	11.902862	36.924609	35.367021	45.000000	-42.431439	2069.309632	-1191.822302	147.263084	-122.518380	1458.862315	89.764731	12.801698	2.297927	8.854383	-45.000000	-35.724435	45.000000	-45.000000	-2415.824500	1517.573567	19.325352	-62.337235	1456.477877	83.551493	-1.551662	-14.075488	
6.6200	36.382547	18.027045	21.309514	-281.856295	826.847541	10.291755	11.905101	36.950315	35.388525	45.000000	-42.381455	2069.310925	-1191.820646	147.268903	-122.555141	1458.880932	89.816851	12.776866	2.283767	8.859100	-45.000000	-35.734763	45.000000	-45.000000	-2415.846810	1517.560962	19.361084	-62.143724	1456.425456	83.111800	-1.556308	-14.084756	
6.6300	36.342312	18.042488	21.415162	-281.449433	826.704681	10.269083	11.912244	36.932352	35.409516	45.000000	-42.319352	2069.311129	-1191.819203	147.266964	-122.586080	1458.902782	89.890835	12.783362	2.275131	8.859266	-45.000000	-35.751247	45.000000	-45.000000	-2415.879448	1517.556484	19.382130	-61.951248	1456.386921	82.694351	-1.558515	-14.083754	
6.6400	36.302403	18.053883	21.514553	-281.011785	826.571391	10.235265	11.919839	36.940969	35.427159	45.000000	-42.251208	2069.312423	-1191.816341	147.259549	-122.627481	1458.927818	89.982921	12.770029	2.263301	8.861908	-45.000000	-35.772669	45.000000	-45.000000	-2415.909365	1517.550441	19.408504	-61.770834	1456.354661	82.308042	-1.561941	-14.085489	
6.6500	36.267108	18.051180	21.601187	-280.541183	826.449544	10.190595	11.926771	36.921176	35.451023	45.000000	-42.171592	2069.312858	-1191.817935	147.241703	-122.672778	1458.953538	90.092246	12.768303	2.255899	8.869055	-45.000000	-35.793551	45.000000	-45.000000	-2415.942499	1517.548913	19.435063	-61.599194	1456.336362	81.953184	-1.564526	-14.084228	
6.6600	36.231374	18.047777	21.682774	-280.033969	826.341090	10.135484	11.936982	36.940551	35.457654	45.000000	-42.088139	2069.315495	-1191.812433	147.207807	-122.730721	1458.980852	90.215740	12.741479	2.244264	8.875958	-45.000000	-35.819975	45.000000	-45.000000	-2415.973585	1517.547224	19.469095	-61.436218	1456.323839	81.634624	-1.568010	-14.085375	
6.6700	36.202891	18.034385	21.753343	-279.485463	826.247897	10.070432	11.941141	36.944262	35.472579	45.000000	-41.992837	2069.314835	-1191.808799	147.172185	-122.799281	1459.010847	90.352791	12.716331	2.235000	8.889623	-45.000000	-35.841091	45.000000	-45.000000	-2416.008694	1517.543175	19.510492	-61.277422	1456.319013	81.349860	-1.571095	-14.085358	
6.6800	36.164235	18.041243	21.839065	-278.890135	826.171615	9.995940	11.948524	36.981036	35.467979	45.000000	-41.903823	2069.325459	-1191.790105	147.142054	-122.871572	1459.049977	90.501348	12.688713	2.220639	8.893213	-45.000000	-35.876303	45.000000	-45.000000	-2416.048388	1517.547109	19.546913	-61.104037	1456.319989	81.100234	-1.574990	-14.075249	
6.6900	36.131949	18.042757	21.916515	-278.242121	826.113442	9.912631	11.941654	36.991167	35.473301	45.000000	-41.801507	2069.334811	-1191.775770	147.119824	-122.961264	1459.091557	90.660452	12.661562	2.208693	8.912384	-45.000000	-35.903048	45.000000	-45.000000	-2416.091606	1517.546764	19.600633	-60.923643	1456.325102	80.887158	-1.579044	-14.062527	
6.7000	36.090636	18.066665	22.008754	-277.535063	826.073828	9.821311	11.933121	37.022699	35.453410	45.000000	-41.695574	2069.348914	-1191.752022	147.096278	-123.063769	1459.136820	90.829191	12.632295	2.193407	8.926920	-45.000000	-35.941897	45.000000	-45.000000	-2416.142497	1517.552630	19.655686	-60.720153	1456.331899	80.711333	-1.584288	-14.043100	
6.7100	36.056874	18.082940	22.096963	-276.762797	826.052546	9.723134	11.905402	37.019635	35.445418	45.000000	-41.566348	2069.360616	-1191.734636	147.080905	-123.189125	1459.181277	91.007139	12.601755	2.180432	8.960199	-45.000000	-35.974051	45.000000	-45.000000	-2416.195609	1517.548881	19.727653	-60.499570	1456.340906	80.573959	-1.590570	-14.023868	
6.7200	36.018505	18.104912	22.197694	-275.919403	826.048595	9.619662	11.870453	37.036799	35.429458	45.000000	-41.429727	2069.380244	-1191.711119	147.064788	-123.325303	1459.228469	91.195161	12.572821	2.163339	8.988783	-45.000000	-36.019777	45.000000	-45.000000	-2416.253496	1517.548143	19.795697	-60.249482	1456.360563	80.472629	-1.600867	-14.004291	
6.7300	35.983815	18.112671	22.297867	-274.999534	826.060432	9.512857	11.821681	37.034997	35.420240	45.000000	-41.275615	2069.410519	-1191.682889	147.047407	-123.472385	1459.276076	91.393497	12.547021	2.144676	9.026980	-45.000000	-36.069725	45.000000	-45.000000	-2416.312225	1517.540506	19.869966	-59.973389	1456.395485	80.406723	-1.615584	-13.987016	
6.7400	35.943285	18.128791	22.411616	-273.998562	826.086165	9.404936	11.772053	37.062550	35.403557	45.000000	-41.117441	2069.445161	-1191.643789	147.025716	-123.624380	1459.326556	91.603536	12.525804	2.119895	9.053312	-45.000000	-36.132475	45.000000	-45.000000	-2416.380484	1517.537130	19.938252	-59.662832	1456.442155	80.374910	-1.634758	-13.971957	
6.7500	35.905151	18.140286	22.528215	-272.912539	826.123867	9.298100	11.716924	37.077271	35.399719	45.000000	-40.944072	2069.477862	-1191.602413	147.007080	-123.786617	1459.379431	91.826542	12.507498	2.091584	9.079167	-45.000000	-36.188175	45.000000	-45.000000	-2416.456524	1517.526734	20.017766	-59.321902	1456.494672	80.375390	-1.656131	-13.959004	
6.7600	35.867330	18.152325	22.655073	-271.738569	826.171824	9.194272	11.666622	37.111176	35.429978	45.000000	-40.773372	2069.493598	-1191.569924	146.998365	-123.955212	1459.437496	92.065134	12.494522	2.057384	9.092232	-45.000000	-36.223713	45.000000	-45.000000	-2416.540678	1517.519349	20.107845	-58.945480	1456.546145	80.407731	-1.678475	-13.948119	
6.7700	35.828971	18.162337	22.790606	-270.474235	826.228743	9.094771	11.620874	37.136062	35.487740	45.000000	-40.594495	2069.495579	-1191.545783	146.996484	-124.135741	1459.500444	92.320293	12.484055	2.018819	9.097102	-45.000000	-36.234365	45.000000	-45.000000	-2416.630998	1517.510044	20.215203	-58.538977	1456.590665	80.470723	-1.699677	-13.937224	
